Coordinates
version=1
nRows=21
nColumns=22
inDegrees=yes

Units are S.I. units (second, meters, Newtons, ...)
If the header above contains a line with 'inDegrees', this indicates whether rotational values are in degrees (yes) or radians (no).

endheader
time	pelvis_tilt	pelvis_list	pelvis_rotation	pelvis_tx	pelvis_ty	pelvis_tz	hip_flexion_r	hip_adduction_r	hip_rotation_r	knee_angle_r	ankle_angle_r	subtalar_angle_r	hip_flexion_l	hip_adduction_l	hip_rotation_l	knee_angle_l	ankle_angle_l	subtalar_angle_l	lumbar_extension	lumbar_bending	lumbar_rotation
      3.60000000	      7.43549900	     -3.95706457	      1.75409551	      0.84831158	      0.92027648	      0.12091682	      9.18197209	      7.42966262	     -4.46944519	    -19.91292948	     -2.24218327	     -3.14903177	      6.40957957	    -10.08265820	     -5.73750503	    -66.71643168	     -4.13387749	      3.51866635	    -10.24133202	     -0.88770402	     -3.75217340
      3.61000000	      7.38944093	     -3.73822191	      1.63262259	      0.85346601	      0.92117998	      0.12152711	      8.88083694	      7.28500400	     -4.20320721	    -19.95997890	     -1.96310853	     -3.25101124	      7.15463182	     -9.92187177	     -5.81941296	    -66.67240045	     -3.13689880	      3.11359468	    -10.26608027	     -1.15419487	     -3.47314576
      3.62000000	      7.32722024	     -3.51790427	      1.47794092	      0.85850710	      0.92207764	      0.12207172	      8.60267260	      7.12363663	     -3.98410585	    -20.00168078	     -1.70504960	     -3.30296648	      7.82538954	     -9.74201648	     -5.95602465	    -66.38865363	     -2.00095575	      2.86823007	    -10.25575693	     -1.41360567	     -3.14614913
      3.63000000	      7.19191538	     -3.26440670	      1.27898201	      0.86341116	      0.92289264	      0.12259206	      8.38568363	      6.92973198	     -3.66032542	    -19.99465465	     -1.45844049	     -3.39324029	      8.50029526	     -9.51239897	     -6.16181410	    -65.89301310	     -0.84098522	      2.42564677	    -10.14734778	     -1.70732380	     -2.82673162
      3.64000000	      7.07491259	     -3.03845556	      1.07020328	      0.86822158	      0.92371367	      0.12302369	      8.14732539	      6.74725790	     -3.41529962	    -19.96644905	     -1.23224648	     -3.44165459	      9.07495324	     -9.29105295	     -6.37722809	    -65.19444815	      0.39791137	      2.19578592	    -10.04561290	     -1.95680026	     -2.47436599
      3.65000000	      6.95125672	     -2.81186719	      0.84602562	      0.87294450	      0.92451835	      0.12339155	      7.89800961	      6.55767389	     -3.15370897	    -19.89084785	     -1.02293585	     -3.48417228	      9.57733665	     -9.05671052	     -6.62780095	    -64.30160135	      1.63959835	      1.98807414	     -9.92172675	     -2.19793698	     -2.13814895
      3.66000000	      6.84291959	     -2.60101578	      0.62136763	      0.87758857	      0.92532310	      0.12366082	      7.61579765	      6.37206205	     -2.91287858	    -19.77201602	     -0.82060968	     -3.50797802	      9.98802686	     -8.82166950	     -6.88805042	    -63.23005735	      2.85539578	      1.84825410	     -9.80378210	     -2.40734500	     -1.79980416
      3.67000000	      6.74434990	     -2.41754594	      0.41358588	      0.88214842	      0.92610639	      0.12383999	      7.31318897	      6.20188052	     -2.71980817	    -19.61828411	     -0.63572505	     -3.51169346	     10.31992354	     -8.60004001	     -7.13768172	    -61.99734125	      4.04486578	      1.79186507	     -9.68883627	     -2.57605955	     -1.48799963
      3.68000000	      6.66404033	     -2.24228159	      0.20740377	      0.88665074	      0.92688638	      0.12394516	      6.97662439	      6.03155727	     -2.52153191	    -19.42997209	     -0.44835723	     -3.50377388	     10.55346283	     -8.38051278	     -7.41199578	    -60.60428429	      5.17177427	      1.75041445	     -9.58099888	     -2.72681196	     -1.17321862
      3.69000000	      6.61617093	     -2.07670937	      0.01268198	      0.89108473	      0.92769972	      0.12399729	      6.57776521	      5.86881676	     -2.29542476	    -19.17803714	     -0.27766660	     -3.48166357	     10.67213715	     -8.15501903	     -7.67844309	    -59.04822123	      6.23519920	      1.70939396	     -9.50568158	     -2.86554182	     -0.86494244
      3.70000000	      6.54260725	     -1.95019752	     -0.15224293	      0.89543976	      0.92840182	      0.12398190	      6.21865930	      5.73445042	     -2.14189357	    -18.93343460	     -0.11503997	     -3.44882523	     10.76113499	     -7.96850755	     -7.93089278	    -57.37735882	      7.31065790	      1.71996953	     -9.39427279	     -2.95488927	     -0.58268853
      3.71000000	      6.45838649	     -1.84416533	     -0.29931339	      0.89972780	      0.92903744	      0.12392711	      5.87083486	      5.61733862	     -2.00149176	    -18.67664307	      0.03246384	     -3.40878516	     10.79336600	     -7.80558149	     -8.19551032	    -55.58305029	      8.36254358	      1.73008172	     -9.26426562	     -3.02052572	     -0.33513837
      3.72000000	      6.34115433	     -1.76559122	     -0.42568067	      0.90393698	      0.92955148	      0.12382287	      5.57607512	      5.52259641	     -1.90032772	    -18.43979204	      0.17893536	     -3.36709581	     10.80151361	     -7.67594817	     -8.47234980	    -53.68975884	      9.39933720	      1.73139513	     -9.09148615	     -3.05165619	     -0.11687468
      3.73000000	      6.19392245	     -1.70881638	     -0.53293349	      0.90805176	      0.92996992	      0.12368748	      5.31954507	      5.44905989	     -1.80792700	    -18.19932413	      0.30978000	     -3.32516321	     10.78261328	     -7.56344873	     -8.73768852	    -51.69862591	     10.38458193	      1.71142160	     -8.88337275	     -3.06242752	      0.06771499
      3.74000000	      6.04267898	     -1.66208023	     -0.63019080	      0.91207750	      0.93034889	      0.12350719	      5.06075858	      5.38810948	     -1.67789222	    -17.93342445	      0.42821773	     -3.27528751	     10.70242426	     -7.44681778	     -8.98942888	    -49.61052126	     11.27240497	      1.65147595	     -8.67252472	     -3.06415761	      0.23693490
      3.75000000	      5.84767575	     -1.64143720	     -0.71652696	      0.91599785	      0.93059123	      0.12329045	      4.87760368	      5.34941469	     -1.59407823	    -17.70654862	      0.55292278	     -3.23156721	     10.62070153	     -7.35916895	     -9.25083232	    -47.46907512	     12.11141502	      1.60104199	     -8.41360415	     -3.03887609	      0.37462127
      3.76000000	      5.62112121	     -1.63989347	     -0.79348464	      0.91983166	      0.93073095	      0.12301643	      4.74717900	      5.32571467	     -1.53814850	    -17.50473592	      0.67914318	     -3.19473447	     10.52266020	     -7.28723060	     -9.52096669	    -45.28166985	     12.88134107	      1.56787087	     -8.11764497	     -2.99138866	      0.48906612
      3.77000000	      5.39012904	     -1.64271490	     -0.86931402	      0.92357435	      0.93082397	      0.12270223	      4.62581961	      5.30683037	     -1.45663140	    -17.29812310	      0.79873580	     -3.15869662	     10.37635709	     -7.20802617	     -9.79014462	    -43.05465422	     13.54168643	      1.54445355	     -7.81795548	     -2.94353602	      0.58927775
      3.78000000	      5.14143255	     -1.66011719	     -0.93919509	      0.92722074	      0.93083218	      0.12232855	      4.54253060	      5.29883816	     -1.39064458	    -17.11441469	      0.91422346	     -3.13012743	     10.20925885	     -7.13421527	    -10.05724016	    -40.82346750	     14.11183737	      1.55334366	     -7.50051708	     -2.87959569	      0.66808464
      3.79000000	      4.84998119	     -1.70959462	     -0.97277750	      0.93075217	      0.93071137	      0.12183837	      4.52172235	      5.32018311	     -1.34420943	    -16.94410500	      0.98246993	     -3.11825699	     10.07139827	     -7.07141612	    -10.25647336	    -38.62913948	     14.60776191	      1.58047603	     -7.13983919	     -2.77102719	      0.67598049
      3.80000000	      4.63230438	     -1.71842190	     -1.07873900	      0.93425041	      0.93065807	      0.12138515	      4.44083744	      5.29281805	     -1.27096888	    -16.80911937	      1.15909720	     -3.09146448	      9.77743591	     -6.97934527	    -10.60720070	    -36.42900097	     14.87490305	      1.67803508	     -6.85730708	     -2.72414746	      0.78663563
